<svg width="128" height="51" viewBox="0 0 128 51" fill="none" xmlns="http://www.w3.org/2000/svg">
<path d="M51 25.5C51 11.4167 39.5833 0 25.5 0C11.4167 0 0 11.4167 0 25.5C0 39.5833 11.4167 51 25.5 51C39.5833 51 51 39.5833 51 25.5Z" fill="#F94F4F"/>
<path d="M19.5518 23.7354V16.4111H24.166C25.7773 16.4111 26.9443 16.6846 27.667 17.2314C28.3896 17.7783 28.751 18.7109 28.751 20.0293C28.751 21.377 28.3652 22.334 27.5938 22.9004C26.832 23.457 25.6357 23.7354 24.0049 23.7354H19.5518ZM18.0723 35C18.4824 35 18.8291 34.8779 19.1123 34.6338C19.4053 34.3896 19.5518 34.043 19.5518 33.5938V25.9912H24.0195C25.1816 25.9912 26.2119 25.8887 27.1104 25.6836C28.0088 25.4785 28.8047 25.1562 29.498 24.7168C30.2012 24.2676 30.7383 23.6523 31.1094 22.8711C31.4805 22.0801 31.666 21.1328 31.666 20.0293C31.666 17.9102 31.0361 16.3867 29.7764 15.459C28.5166 14.5313 26.6855 14.0674 24.2832 14.0674H18.0869C17.667 14.0674 17.3105 14.209 17.0176 14.4922C16.7344 14.7754 16.5928 15.1221 16.5928 15.5322V33.5938C16.5928 34.0332 16.7393 34.3799 17.0322 34.6338C17.3252 34.8779 17.6719 35 18.0723 35ZM36.4121 35.0293C36.9199 35.0293 37.3301 34.873 37.6426 34.5605C37.9551 34.248 38.1113 33.877 38.1113 33.4473C38.1113 33.0273 37.9502 32.666 37.6279 32.3633C37.3154 32.0508 36.9102 31.8945 36.4121 31.8945C35.9043 31.8945 35.4941 32.0508 35.1816 32.3633C34.8691 32.6758 34.7129 33.0371 34.7129 33.4473C34.7129 33.877 34.8691 34.248 35.1816 34.5605C35.4941 34.873 35.9043 35.0293 36.4121 35.0293Z" fill="white"/>
<path d="M61.9752 35.18C61.2552 35.18 60.6852 34.97 60.2652 34.55C59.8452 34.13 59.6352 33.56 59.6352 32.84V16.04C59.6352 15.34 59.8252 14.8 60.2052 14.42C60.5852 14.04 61.1252 13.85 61.8252 13.85H69.3552C71.6552 13.85 73.4452 14.43 74.7252 15.59C76.0052 16.75 76.6452 18.37 76.6452 20.45C76.6452 22.53 76.0052 24.15 74.7252 25.31C73.4452 26.47 71.6552 27.05 69.3552 27.05H64.3152V32.84C64.3152 33.56 64.1052 34.13 63.6852 34.55C63.2652 34.97 62.6952 35.18 61.9752 35.18ZM68.7552 23.51C71.0952 23.51 72.2652 22.5 72.2652 20.48C72.2652 18.44 71.0952 17.42 68.7552 17.42H64.3152V23.51H68.7552ZM81.5942 35.18C80.9342 35.18 80.3842 35 79.9442 34.64C79.5242 34.28 79.3142 33.75 79.3142 33.05V15.83C79.3142 15.13 79.5242 14.6 79.9442 14.24C80.3842 13.88 80.9342 13.7 81.5942 13.7C82.2342 13.7 82.7642 13.88 83.1842 14.24C83.6242 14.6 83.8442 15.13 83.8442 15.83V33.05C83.8442 33.75 83.6242 34.28 83.1842 34.64C82.7642 35 82.2342 35.18 81.5942 35.18ZM93.9423 19.91C96.1023 19.91 97.7023 20.44 98.7423 21.5C99.7823 22.54 100.302 24.14 100.302 26.3V33.08C100.302 33.74 100.112 34.26 99.7323 34.64C99.3523 35 98.8223 35.18 98.1423 35.18C97.5023 35.18 96.9823 34.99 96.5823 34.61C96.2023 34.21 96.0123 33.7 96.0123 33.08V32.87C95.7123 33.61 95.2123 34.19 94.5123 34.61C93.8123 35.03 92.9923 35.24 92.0523 35.24C91.0523 35.24 90.1423 35.04 89.3223 34.64C88.5223 34.24 87.8823 33.68 87.4023 32.96C86.9423 32.24 86.7123 31.44 86.7123 30.56C86.7123 29.48 86.9823 28.63 87.5223 28.01C88.0823 27.39 88.9723 26.94 90.1923 26.66C91.4123 26.38 93.0823 26.24 95.2023 26.24H95.9823V25.7C95.9823 24.86 95.7923 24.25 95.4123 23.87C95.0523 23.49 94.4423 23.3 93.5823 23.3C92.7223 23.3 91.4823 23.6 89.8623 24.2C89.4023 24.42 89.0123 24.53 88.6923 24.53C88.2523 24.53 87.9023 24.38 87.6423 24.08C87.3823 23.76 87.2523 23.35 87.2523 22.85C87.2523 22.45 87.3423 22.12 87.5223 21.86C87.7023 21.6 87.9923 21.36 88.3923 21.14C89.0923 20.76 89.9423 20.46 90.9423 20.24C91.9623 20.02 92.9623 19.91 93.9423 19.91ZM93.0423 32.12C93.9223 32.12 94.6323 31.83 95.1723 31.25C95.7123 30.65 95.9823 29.88 95.9823 28.94V28.43H95.4723C93.8523 28.43 92.7123 28.56 92.0523 28.82C91.4123 29.08 91.0923 29.55 91.0923 30.23C91.0923 30.79 91.2723 31.25 91.6323 31.61C92.0123 31.95 92.4823 32.12 93.0423 32.12ZM105.969 35.18C105.309 35.18 104.759 35 104.319 34.64C103.899 34.28 103.689 33.75 103.689 33.05V22.1C103.689 21.4 103.909 20.87 104.349 20.51C104.789 20.15 105.329 19.97 105.969 19.97C106.609 19.97 107.139 20.15 107.559 20.51C107.999 20.87 108.219 21.4 108.219 22.1V33.05C108.219 33.75 107.999 34.28 107.559 34.64C107.139 35 106.609 35.18 105.969 35.18ZM105.969 17.57C105.169 17.57 104.539 17.37 104.079 16.97C103.619 16.55 103.389 15.99 103.389 15.29C103.389 14.59 103.619 14.04 104.079 13.64C104.539 13.24 105.169 13.04 105.969 13.04C106.749 13.04 107.369 13.25 107.829 13.67C108.309 14.07 108.549 14.61 108.549 15.29C108.549 15.99 108.319 16.55 107.859 16.97C107.399 17.37 106.769 17.57 105.969 17.57ZM120.927 19.91C122.687 19.91 123.997 20.43 124.857 21.47C125.717 22.49 126.147 24.04 126.147 26.12V33.05C126.147 33.71 125.937 34.23 125.517 34.61C125.117 34.99 124.567 35.18 123.867 35.18C123.167 35.18 122.617 34.99 122.217 34.61C121.817 34.23 121.617 33.71 121.617 33.05V26.33C121.617 25.33 121.427 24.6 121.047 24.14C120.687 23.68 120.117 23.45 119.337 23.45C118.397 23.45 117.637 23.75 117.057 24.35C116.497 24.95 116.217 25.75 116.217 26.75V33.05C116.217 33.71 116.017 34.23 115.617 34.61C115.217 34.99 114.667 35.18 113.967 35.18C113.267 35.18 112.707 34.99 112.287 34.61C111.887 34.23 111.687 33.71 111.687 33.05V22.04C111.687 21.42 111.897 20.92 112.317 20.54C112.757 20.16 113.317 19.97 113.997 19.97C114.617 19.97 115.117 20.16 115.497 20.54C115.897 20.9 116.097 21.37 116.097 21.95V22.37C116.617 21.57 117.287 20.96 118.107 20.54C118.947 20.12 119.887 19.91 120.927 19.91Z" fill="#38424D"/>
</svg>
